<svg xmlns="http://www.w3.org/2000/svg" viewBox="0 0 150 150"><path d="M62.7 56.3H52c-.6 0-1 .4-1 1v11c0 .6.4 1 1 1h10.6c.6 0 1-.4 1-1v-11c.1-.6-.4-1-.9-1zm-1 11H53v-9h8.6v9zm17.6-11H68.7c-.6 0-1 .4-1 1v11c0 .6.4 1 1 1h10.6c.6 0 1-.4 1-1v-11c0-.6-.4-1-1-1zm-1 11h-8.6v-9h8.6v9zm17.8-11H85.5c-.6 0-1 .4-1 1v11c0 .6.4 1 1 1h10.6c.6 0 1-.4 1-1v-11c0-.6-.4-1-1-1zm-1 11h-8.6v-9h8.6v9zm-32.4 10H52c-.6 0-1 .4-1 1v11c0 .6.4 1 1 1h10.6c.6 0 1-.4 1-1v-11c.1-.6-.4-1-.9-1zm-1 11H53v-9h8.6v9zm17.6-11H68.7c-.6 0-1 .4-1 1v11c0 .6.4 1 1 1h10.6c.6 0 1-.4 1-1v-11c0-.6-.4-1-1-1zm-1 11h-8.6v-9h8.6v9zm17.8-11H85.5c-.6 0-1 .4-1 1v11c0 .6.4 1 1 1h10.6c.6 0 1-.4 1-1v-11c0-.6-.4-1-1-1zm-1 11h-8.6v-9h8.6v9zm-32.4 10H52c-.6 0-1 .4-1 1v11c0 .6.4 1 1 1h10.6c.6 0 1-.4 1-1v-11c.1-.6-.4-1-.9-1zm-1 10.9H53v-9h8.6v9zm17.6-10.9H68.7c-.6 0-1 .4-1 1v11c0 .6.4 1 1 1h10.6c.6 0 1-.4 1-1v-11c0-.6-.4-1-1-1zm-1 10.9h-8.6v-9h8.6v9zm17.8-10.9H85.5c-.6 0-1 .4-1 1v11c0 .6.4 1 1 1h10.6c.6 0 1-.4 1-1v-11c0-.6-.4-1-1-1zm-1 10.9h-8.6v-9h8.6v9zM71 28.8H60.4c-.6 0-1 .4-1 1v11c0 .6.4 1 1 1H71c.6 0 1-.4 1-1v-11c0-.6-.5-1-1-1zm-1 11h-8.6v-9H70v9zm17.8-11H77.2c-.6 0-1 .4-1 1v11c0 .6.4 1 1 1h10.6c.6 0 1-.4 1-1v-11c0-.6-.4-1-1-1zm-1 11h-8.6v-9h8.6v9zm21.1-32.5H40.1c-.6 0-1 .4-1 1v14.1c0 .6.4 1 1 1h5.7v23.9h-5.3c-.6 0-1 .4-1 1v94.4c0 .6.4 1 1 1h20.4c.1 0 .2.1.3.1h25.6c.1 0 .2 0 .3-.1h20.4c.6 0 1-.4 1-1V48.2c0-.6-.4-1-1-1h-5.3V23.3h5.7c.6 0 1-.4 1-1v-14c0-.6-.4-1-1-1zM85.8 141.7H75.2V126h10.6v15.7zm-13 0H62.2V126h10.6v15.7zm33.8 0H87.8V125c0-.6-.4-1-1-1H61.2c-.6 0-1 .4-1 1v16.7H41.5V49.2h65.1v92.5zM47.8 47.2V23.4h52.5v23.9H47.8zm59.1-25.9H41.1v-12h65.8v12z" fill="#6c9ca6"/></svg>